<svg xmlns="http://www.w3.org/2000/svg" width="553" height="451" viewBox="0 0 553 451" version="1.1"><path d="M 156.937 77.160 C 152.227 79.366, 147.900 81.930, 147.321 82.857 C 146.683 83.879, 150.350 82.449, 156.634 79.225 C 165.999 74.421, 168.441 72.859, 166.250 73.074 C 165.838 73.114, 161.647 74.953, 156.937 77.160 M 175 79.843 L 175 84 188.750 83.996 C 204.858 83.992, 231.219 82.886, 230.574 82.241 C 230.329 81.995, 230.538 80.716, 231.039 79.397 L 231.950 77 219.225 76.997 C 212.226 76.995, 199.412 76.699, 190.750 76.340 L 175 75.687 175 79.843 M 163.952 79.060 C 159.972 80.828, 159.375 81.498, 159.178 84.422 C 158.972 87.485, 159.302 87.904, 163.134 89.437 C 167.549 91.203, 168.950 90.590, 168.985 86.872 C 168.993 85.977, 169.698 84.666, 170.551 83.958 C 172.456 82.377, 172.063 77.607, 170 77.278 C 169.175 77.147, 166.453 77.949, 163.952 79.060 M 223.264 86.718 C 224.784 86.947, 227.034 86.941, 228.264 86.704 C 229.494 86.467, 228.250 86.279, 225.500 86.286 C 222.750 86.294, 221.744 86.488, 223.264 86.718 M 176 87.962 C 170.270 89.710, 177.322 89.951, 195.500 88.628 L 214.500 87.246 196.500 87.223 C 186.600 87.210, 177.375 87.543, 176 87.962 M 295.929 172.122 C 294.529 172.513, 296.677 172.794, 301 172.784 C 308.451 172.768, 308.770 172.423, 301.929 171.779 C 299.965 171.595, 297.265 171.749, 295.929 172.122 M 314.854 173.111 C 313.960 173.678, 314.773 173.975, 317.250 173.985 C 319.578 173.994, 321 174.475, 321 175.252 C 321 176.217, 315.230 176.534, 295.750 176.638 C 269.374 176.778, 239.394 179.090, 213.160 183.008 C 197.279 185.379, 197 185.390, 197 183.603 C 197 182.186, 202.985 180.805, 215.278 179.385 C 218.456 179.018, 221.338 178.262, 221.683 177.705 C 222.027 177.147, 221.828 176.988, 221.240 177.352 C 220.652 177.715, 220.014 177.542, 219.822 176.966 C 219.586 176.259, 216.403 176.409, 209.987 177.429 C 204.769 178.259, 198.700 179.029, 196.500 179.140 C 191.696 179.381, 190.308 180.326, 188.540 184.557 C 187.452 187.163, 186.180 188.106, 181.848 189.524 C 157.682 197.429, 137.012 209.957, 118.645 227.830 L 111.790 234.500 112.538 240 C 113.695 248.515, 113.564 249.006, 107.933 257.237 C 105.022 261.492, 102.948 265.281, 103.323 265.657 C 103.699 266.032, 106.142 265.318, 108.753 264.070 C 112.370 262.342, 115.047 259.773, 120 253.277 C 128.294 242.400, 144.481 225.953, 153.500 219.240 C 166.407 209.632, 179.301 203.990, 183.304 206.200 C 184.512 206.867, 187.541 208.118, 190.036 208.980 C 194.080 210.378, 194.575 210.383, 194.604 209.024 C 194.621 208.186, 194.973 206.488, 195.385 205.250 C 195.950 203.555, 195.748 203, 194.567 203 C 193.705 203, 193 202.396, 193 201.658 C 193 198.985, 220.204 191.963, 239.970 189.533 C 261.331 186.907, 278.339 187.807, 296.491 192.523 C 305.471 194.856, 312.891 195.831, 325.330 196.313 C 328.276 196.427, 330.617 197.091, 331.330 198.014 C 331.974 198.847, 334.075 199.676, 336 199.855 C 340.299 200.256, 342.586 202.181, 343.360 206.051 C 344.112 209.810, 345.270 209.733, 351.954 205.474 C 354.953 203.563, 357.775 202, 358.225 202 C 358.675 202, 360.721 200.908, 362.771 199.573 C 364.822 198.239, 368.830 195.876, 371.678 194.323 C 374.526 192.771, 377.001 191.050, 377.178 190.500 C 377.648 189.042, 368.097 186.135, 356.554 184.224 C 344.563 182.238, 294.209 181.959, 277 183.782 C 267.383 184.802, 263.337 184.330, 265.254 182.413 C 266.996 180.671, 286.027 179.628, 317.200 179.568 C 336.285 179.530, 351.585 179.254, 351.200 178.954 C 346.827 175.544, 318.263 170.951, 314.854 173.111 M 248.743 173.590 C 248.418 173.915, 243.788 174.323, 238.454 174.498 C 231.237 174.735, 228.348 175.223, 227.164 176.408 C 226.288 177.284, 226.005 177.990, 226.536 177.979 C 231.169 177.876, 252.040 174.978, 254 174.164 C 256.394 173.171, 256.348 173.124, 252.917 173.063 C 250.946 173.029, 249.068 173.266, 248.743 173.590 M 257 174 C 257 174.550, 258.238 174.968, 259.750 174.930 C 262.187 174.867, 262.272 174.762, 260.500 174 C 257.769 172.826, 257 172.826, 257 174 M 269.250 173.716 C 270.762 173.945, 273.238 173.945, 274.750 173.716 C 276.262 173.487, 275.025 173.300, 272 173.300 C 268.975 173.300, 267.738 173.487, 269.250 173.716 M 216.500 185.453 C 194.988 188.419, 174.885 195.987, 153.829 209.046 C 136.757 219.634, 116.534 236.860, 118.642 239.016 C 119.508 239.902, 121.785 238.343, 128.036 232.587 C 153.987 208.690, 189.728 191.268, 218.500 188.488 C 231.331 187.248, 233 186.897, 233 185.439 C 233 183.692, 229.252 183.695, 216.500 185.453 M 244.235 191.999 C 231.070 193.387, 200 200.235, 200 201.749 C 200 202.951, 203.667 204.939, 205.938 204.968 C 207.279 204.986, 209.754 205.970, 211.438 207.156 C 218.222 211.933, 239.236 237.597, 243.924 246.831 C 247.358 253.594, 250 265.479, 250 274.160 L 250 282 252.959 282 C 254.587 282, 259.312 281.495, 263.459 280.878 L 271 279.757 271 265.907 C 271 251.698, 273.448 236.066, 276.664 229.733 C 278.591 225.938, 290.185 210.787, 296.711 203.536 C 301.936 197.731, 302.017 197.550, 299.789 196.690 C 289.202 192.607, 261.034 190.229, 244.235 191.999 M 169.166 213.148 C 163.549 215.927, 163.841 217.476, 170.006 217.601 C 174.830 217.699, 175 217.607, 175 214.910 C 175 211.065, 173.992 210.760, 169.166 213.148 M 148.903 227.381 C 140.594 234.543, 135.872 239.403, 127.644 249.263 C 121.516 256.607, 120.699 258.609, 124.250 257.583 C 130.066 255.902, 138.254 255.063, 150.075 254.938 L 162.964 254.801 158.108 249.151 C 150.675 240.501, 149.579 237.563, 152.644 234.499 C 153.707 233.436, 155.136 233.068, 156.690 233.458 C 160.194 234.338, 161.053 233.329, 159.438 230.233 C 158.654 228.730, 158.010 226.037, 158.006 224.250 C 158.003 222.463, 157.619 221, 157.153 221 C 156.687 221, 152.974 223.871, 148.903 227.381 M 431.737 300.594 C 431.357 302.581, 433.386 307.680, 439.611 320.385 L 447.996 337.500 446.965 344 C 443.963 362.923, 434.548 379.812, 422.581 387.739 C 419.953 389.479, 418.453 391.116, 418.869 391.789 C 419.967 393.564, 428.600 388.080, 436.080 380.855 C 444.110 373.099, 449.549 364.028, 452.164 354.031 C 455.530 341.162, 455.245 339.275, 447.633 324 C 434.538 297.724, 432.781 295.136, 431.737 300.594 M 431.250 314.662 C 430.497 314.966, 430 317.048, 430 319.897 C 430 327.283, 427.433 344.844, 423.512 364.273 C 419.156 385.862, 419.475 387.430, 426.740 380.165 C 435.439 371.466, 442.439 356.297, 443.661 343.500 C 444.208 337.772, 443.983 336.968, 438.686 325.750 C 435.635 319.288, 432.995 314.036, 432.819 314.079 C 432.644 314.122, 431.938 314.385, 431.250 314.662 M 408.820 397 C 408.295 398.375, 404.918 403.931, 401.315 409.346 C 395.612 417.918, 394.950 419.379, 396.204 420.633 C 396.997 421.425, 398.308 421.819, 399.119 421.508 C 400.411 421.012, 413.531 402.166, 416.628 396.357 C 417.711 394.325, 417.563 394.221, 413.772 394.357 C 410.495 394.474, 409.602 394.951, 408.820 397 M 90 399.356 C 90 403.684, 100.576 415.557, 112.409 424.513 C 118.885 429.415, 135.145 439.414, 147.090 445.841 C 155.944 450.604, 157.200 451, 163.467 451 L 170.254 451 159.377 445.339 C 130.874 430.504, 109.970 415.171, 101.729 403.054 C 97.927 397.463, 97.325 397.035, 93.250 397.015 C 90.499 397.002, 90 397.361, 90 399.356 M 104 398.014 C 104 398.621, 103.461 398.785, 102.803 398.378 C 100.686 397.070, 106.085 403.990, 111.072 408.977 C 121.025 418.930, 136.341 429.147, 156.500 439.281 C 182.360 452.281, 183.176 452.470, 199 449.096 C 207.194 447.350, 207.392 447.243, 204.500 446.125 C 202.850 445.488, 199.925 444.344, 198 443.583 C 196.075 442.822, 186.625 439.410, 177 436 C 155.652 428.438, 134.780 418.551, 126 411.840 C 124.625 410.789, 120.800 407.299, 117.500 404.084 C 113.127 399.824, 110.483 398.059, 107.750 397.574 C 105.279 397.136, 104 397.286, 104 398.014 M 396.500 401.184 C 393.750 402.211, 389.590 404.010, 387.256 405.180 C 382.621 407.504, 382.581 407.142, 388.172 413.321 C 389.822 415.146, 391.432 416.048, 392.383 415.683 C 394.654 414.812, 403.507 401.087, 402.418 400.126 C 401.913 399.680, 399.250 400.156, 396.500 401.184" stroke="none" fill="#b1fb06" fill-rule="evenodd"/><path d="M 259.206 1.048 C 256.508 2.130, 254 7.545, 254 12.286 C 254 14.129, 254.702 18.001, 255.560 20.889 C 256.418 23.778, 256.980 26.540, 256.810 27.028 C 256.639 27.515, 254.538 27.033, 252.141 25.957 C 244.198 22.391, 230.334 24.181, 224.578 29.515 C 222.345 31.584, 221.902 32.766, 222.138 36.025 C 222.397 39.616, 221.929 40.522, 217.375 45.253 C 208.991 53.962, 208 55.678, 208 61.480 C 208 65.426, 208.487 67.131, 210.007 68.507 C 212.234 70.522, 217.744 70.743, 221.093 68.950 C 222.720 68.079, 223.542 68.181, 224.912 69.420 C 225.872 70.289, 228.347 71, 230.412 71 C 232.984 71, 234.028 71.394, 233.726 72.250 C 233.483 72.938, 232.433 73.400, 231.392 73.278 C 230.352 73.156, 216.053 72.992, 199.617 72.913 L 169.735 72.769 158.146 78.635 C 151.772 81.861, 146.414 85.002, 146.240 85.616 C 146.064 86.233, 150.949 88.608, 157.174 90.932 L 168.425 95.132 194.245 94.027 C 208.447 93.420, 220.501 93.191, 221.033 93.520 C 221.565 93.849, 222.012 94.879, 222.027 95.809 C 222.071 98.528, 227.738 111.075, 231.243 116.211 C 233.017 118.810, 235.960 121.739, 237.783 122.719 C 240.242 124.040, 242.003 126.382, 244.607 131.793 C 246.538 135.805, 250.116 141.173, 252.558 143.722 C 257.548 148.930, 257.972 151.174, 255.047 156.908 C 253.135 160.656, 246.371 165, 242.445 165 C 240.053 165, 226.689 171.427, 225.128 173.328 C 224.373 174.248, 223.185 175, 222.489 175 C 221.792 175, 221.285 175.770, 221.361 176.712 C 221.470 178.054, 220.311 178.592, 216 179.202 C 200.650 181.373, 197 182.216, 197 183.590 C 197 185.391, 197.266 185.381, 213.160 183.008 C 239.394 179.090, 269.374 176.778, 295.750 176.638 C 313.537 176.543, 321 176.175, 321 175.391 C 321 173.911, 312.953 173.019, 299.500 173.009 L 288.500 173.001 288.842 168.073 C 289.169 163.347, 289.352 163.076, 293.261 161.512 C 309.387 155.060, 315.118 151.427, 312.108 149.567 C 311.617 149.263, 305.317 151.804, 298.108 155.213 L 285 161.411 285 166.006 C 285 168.533, 285.489 171.089, 286.086 171.686 C 286.867 172.467, 284.272 172.961, 276.836 173.446 C 265.470 174.188, 237.095 176.678, 230 177.556 L 225.500 178.113 228.485 175.582 C 230.127 174.189, 236.152 171.382, 241.874 169.343 C 247.597 167.304, 253.483 164.623, 254.955 163.384 L 257.631 161.132 268.566 162.830 L 279.500 164.528 280 167.934 C 280.860 173.796, 283 172.910, 283 166.692 C 283 160.373, 283.913 160.885, 269.156 158.929 L 259.812 157.690 260.406 154.720 C 260.733 153.087, 261 151.443, 261 151.069 C 261 150.694, 264.038 150.383, 267.750 150.376 C 281.331 150.354, 290.556 144.346, 296.493 131.657 L 299.696 124.814 300.333 131.677 C 301.283 141.899, 303.622 149, 306.039 149 C 308.437 149, 308.499 147.855, 306.326 143.700 C 305.083 141.325, 304.536 136.987, 304.202 126.875 L 303.752 113.250 307.839 113.357 C 311.218 113.446, 312.557 112.861, 315.572 109.982 C 322.110 103.738, 327.033 93.798, 329.046 82.777 C 331.508 69.297, 324.069 62.003, 314.074 68.096 L 310.648 70.185 308.952 67.936 C 306.729 64.989, 304.381 65.954, 303.486 70.182 C 302.552 74.595, 299.283 78, 295.981 78 C 291.711 78, 289.885 75.013, 289.153 66.826 C 288.363 57.994, 286.535 56.843, 283.500 63.266 C 281.190 68.155, 276.805 70.913, 274.448 68.957 C 272.575 67.402, 272.611 64.652, 274.555 60.894 C 276.778 56.595, 276.143 49.582, 273.500 49.244 C 270.073 48.806, 268.905 50.483, 268.381 56.594 C 267.595 65.755, 267.234 66.692, 263.634 68.917 C 255.993 73.640, 253.439 70.734, 254.316 58.313 C 254.716 52.642, 254.558 50, 253.817 50 C 253.221 50, 249.416 53.150, 245.363 57 C 241.310 60.850, 237.375 64, 236.619 64 C 235.863 64, 234.685 64.675, 234 65.500 C 232.615 67.169, 227 67.570, 227 66 C 227 65.450, 227.399 65, 227.886 65 C 228.373 65, 230.416 63.313, 232.425 61.250 C 235.207 58.394, 236.009 56.809, 235.789 54.601 C 235.392 50.616, 232.885 49.189, 229.482 51.010 C 226.672 52.514, 222 59.571, 222 62.312 C 222 64.426, 216.479 67.287, 213.950 66.484 C 212.424 66, 212.002 64.957, 212.011 61.683 C 212.019 58.356, 212.787 56.548, 215.761 52.851 C 222.168 44.884, 225.403 42.754, 231.300 42.619 C 235.926 42.513, 236.536 42.246, 236.827 40.195 C 237.495 35.482, 234.026 34.110, 227.662 36.571 C 224.272 37.882, 226.132 32.816, 229.831 30.661 C 234.501 27.941, 245.604 27.227, 249.766 29.379 C 251.490 30.270, 254.476 31, 256.401 31 C 261.058 31, 262.217 28.866, 260.382 23.667 C 257.937 16.735, 257.511 9.395, 259.389 6.529 C 260.300 5.138, 261.667 4, 262.425 4 C 264.044 4, 266 9.047, 266 13.223 C 266 15.470, 266.405 16.068, 267.750 15.806 C 269.210 15.522, 269.449 14.556, 269.191 9.983 C 268.945 5.637, 268.363 4.033, 266.385 2.250 C 263.677 -0.191, 262.699 -0.355, 259.206 1.048 M 281.500 11.892 C 273.447 15.772, 271.531 17.337, 272.320 19.391 C 272.883 20.859, 273.881 20.576, 280.232 17.144 C 289.171 12.315, 293.844 11.351, 297.972 13.486 C 301.772 15.450, 301.784 16.543, 298.030 18.485 C 294.121 20.506, 292.589 23.363, 294 26 C 296.017 29.769, 303.094 27.512, 305.003 22.491 C 305.772 20.471, 306.300 20.278, 309.249 20.943 C 313.785 21.966, 317.448 24.492, 318.846 27.561 C 320.541 31.281, 320.382 31.495, 315.878 31.553 C 313.040 31.589, 311.332 32.192, 310.381 33.494 C 308.585 35.950, 308.620 36.247, 311.073 39.365 C 313.756 42.777, 317.858 42.845, 320.972 39.530 C 323.191 37.167, 323.411 37.130, 326.011 38.665 C 329.753 40.876, 332.130 45.274, 332.873 51.362 C 333.315 54.984, 333.943 56.500, 335 56.500 C 336.157 56.500, 336.496 55.218, 336.481 50.887 C 336.466 46.355, 335.910 44.478, 333.592 41.133 C 332.014 38.855, 329.210 36.057, 327.361 34.914 C 325.143 33.543, 324 32.065, 324 30.566 C 324 25.027, 315.366 17, 309.409 17 C 306.829 17, 305.739 16.367, 304.391 14.085 C 302.166 10.318, 299.136 9, 292.703 9.001 C 289.017 9.001, 285.750 9.845, 281.500 11.892 M 314 36.570 C 314 37.612, 314.729 38.032, 316.172 37.820 C 319.373 37.348, 319.716 35, 316.583 35 C 314.903 35, 314 35.549, 314 36.570 M 228.704 56.940 C 224.980 61.366, 225.292 63.170, 229.120 59.341 C 230.836 57.625, 232.053 55.660, 231.824 54.973 C 231.569 54.208, 230.363 54.968, 228.704 56.940 M 243.625 63.502 L 237.750 68.767 237.259 75.633 C 235.699 97.459, 244.230 128.700, 254.914 140.290 C 260.117 145.935, 265.362 147.538, 273.196 145.878 C 285.360 143.299, 290.316 138.135, 296.479 121.617 C 300.743 110.189, 300.858 108.943, 298.454 100.254 C 296.921 94.715, 296.886 93.584, 298.150 90.254 C 300.971 82.820, 307.023 86.056, 306.976 94.973 C 306.963 97.463, 306.539 101.285, 306.033 103.466 C 304.311 110.893, 308.267 112.148, 314.093 106.023 C 321.718 98.008, 327.793 79.529, 324.839 73.338 C 321.809 66.987, 314.036 70.381, 310.519 79.590 C 308.978 83.626, 306.856 85.194, 305.627 83.206 C 305.357 82.769, 305.957 80.579, 306.960 78.339 C 309.228 73.273, 308.125 70.756, 305.650 75.352 C 302.117 81.912, 293.974 84.065, 289.524 79.615 C 288.212 78.303, 286.644 75.393, 286.040 73.148 L 284.941 69.066 281.720 71.029 C 277.659 73.506, 274.861 73.520, 271.861 71.080 C 269.519 69.176, 269.475 69.179, 266.417 71.503 C 264.722 72.792, 261.753 74.143, 259.819 74.506 C 256.943 75.046, 255.777 74.713, 253.406 72.673 C 250.971 70.579, 250.428 69.227, 250.004 64.209 L 249.500 58.236 243.625 63.502 M 249.328 74.589 C 248.936 75.609, 249.334 76.608, 250.361 77.182 C 251.279 77.696, 252.950 79.103, 254.073 80.308 C 255.965 82.339, 256.106 83.678, 255.992 98.500 C 255.924 107.300, 255.899 115.287, 255.935 116.250 C 256.084 120.233, 267 116.462, 267 112.427 C 267 110.554, 265.506 110.622, 262.434 112.635 C 261.061 113.535, 259.721 114.054, 259.456 113.790 C 259.192 113.525, 259.341 107.727, 259.788 100.904 C 260.949 83.204, 259.581 77.903, 252.973 74.486 C 250.218 73.061, 249.910 73.070, 249.328 74.589 M 175 79.966 L 175 84 187.840 84 C 194.902 84, 208.177 83.704, 217.340 83.343 L 234 82.686 234 80.312 C 234 79.006, 233.438 77.763, 232.750 77.551 C 232.063 77.339, 218.787 76.887, 203.250 76.548 L 175 75.932 175 79.966 M 163.750 79.147 C 159.484 81.040, 159 81.588, 159 84.519 C 159 87.396, 159.476 87.973, 163.020 89.391 C 168.460 91.568, 169 91.453, 169 88.122 C 169 86.540, 169.698 84.666, 170.551 83.958 C 172.456 82.377, 172.063 77.607, 170 77.278 C 169.175 77.147, 166.363 77.988, 163.750 79.147 M 277.647 83.496 C 276.557 84.585, 276 86.833, 276 90.137 C 276 95.664, 277.318 99, 279.500 99 C 283.328 99, 284.667 87.223, 281.230 83.786 C 279.432 81.988, 279.176 81.967, 277.647 83.496 M 247.178 84.859 C 246.450 85.326, 245.490 87.326, 245.044 89.305 C 243.371 96.722, 247.275 103.981, 250.559 99.559 C 253.891 95.071, 250.981 82.420, 247.178 84.859 M 197.713 86.943 C 178.074 87.403, 173.762 87.762, 172.991 89 C 172.226 90.229, 172.820 90.561, 176.279 90.836 C 181.761 91.272, 228.739 89.107, 232 88.267 L 234.500 87.624 232 86.912 C 230.625 86.520, 227.700 86.241, 225.500 86.292 C 223.300 86.343, 210.796 86.636, 197.713 86.943 M 301.668 92.250 C 301.366 93.487, 301.496 96.075, 301.957 98 C 302.730 101.229, 302.803 101.054, 302.898 95.750 C 303.005 89.698, 302.583 88.497, 301.668 92.250 M 225 92.326 C 225 94.319, 230.845 108.584, 233.132 112.173 C 238.321 120.317, 240.254 120.832, 237.642 113.376 C 236.895 111.244, 235.983 107.250, 235.615 104.500 C 233.798 90.920, 234.334 92, 229.412 92 C 226.985 92, 225 92.147, 225 92.326 M 270.035 122.458 C 268.589 124.200, 265.433 124.509, 264.500 123 C 263.368 121.168, 261.857 121.969, 262.180 124.230 C 262.832 128.774, 269.645 129.094, 272.411 124.711 C 273.911 122.333, 271.800 120.331, 270.035 122.458 M 282.500 180.028 C 268.160 181.190, 264.773 181.836, 265.294 183.307 C 265.754 184.608, 265.873 184.606, 288.830 183.044 C 328.282 180.358, 362.334 182.954, 377.254 189.785 C 381.798 191.866, 382.745 192.673, 381.754 193.622 C 378.716 196.533, 355.277 209.282, 353.197 209.155 C 351.930 209.077, 349.118 209.920, 346.947 211.027 C 344.776 212.135, 343 212.608, 343 212.079 C 343 211.551, 343.399 210.872, 343.886 210.570 C 344.975 209.897, 342.853 203.421, 340.910 201.490 C 338.614 199.207, 332.771 199.361, 328.811 201.808 C 324.391 204.540, 324.004 204.535, 323.985 201.750 C 323.953 197.041, 319.746 194.424, 314.527 195.865 C 311.864 196.600, 309.655 196.366, 304.791 194.833 C 273.988 185.126, 240.077 186.058, 201.750 197.665 C 196.412 199.282, 193 200.839, 193 201.658 C 193 203.604, 198.888 203.786, 200.074 201.876 C 200.808 200.693, 220.515 195.728, 233.500 193.453 C 245.986 191.266, 273.240 190.951, 284 192.869 C 292.649 194.411, 307 198.893, 307 200.053 C 307 200.486, 304.583 203.689, 301.628 207.170 C 295.935 213.879, 282 233.753, 282 235.164 C 282 235.624, 282.607 236, 283.350 236 C 284.092 236, 287.183 232.287, 290.217 227.750 C 298.586 215.236, 304.950 207.556, 310.738 202.985 C 317.274 197.824, 319.390 198.002, 319.807 203.746 C 320.059 207.214, 319.572 208.653, 317.103 211.738 C 315.447 213.807, 312.486 218.591, 310.522 222.369 C 307.776 227.653, 307.213 229.551, 308.081 230.598 C 309.706 232.555, 312.450 230.807, 315.755 225.707 C 317.254 223.393, 318.758 221.275, 319.096 221 C 319.434 220.725, 320.264 218.801, 320.941 216.725 C 321.618 214.648, 323.315 211.591, 324.712 209.931 C 327.359 206.785, 333.787 203, 336.482 203 C 339.071 203, 340.319 207.115, 339.084 211.582 C 337.726 216.492, 337.652 216.588, 331 222.014 C 327.976 224.481, 324.703 227.400, 323.728 228.500 C 320.760 231.847, 317.983 237.792, 318.616 239.442 C 320.730 244.952, 333.158 234.742, 339.329 222.426 C 340.960 219.171, 347.202 214.489, 351.275 213.467 C 354.047 212.771, 357 215.070, 357 217.922 C 357 222.224, 354.596 226.180, 350.143 229.207 C 336.550 238.446, 327.988 250.523, 333.525 252.648 C 336.932 253.955, 346.134 245.864, 352.743 235.750 C 354.809 232.588, 357.288 229.745, 358.250 229.433 C 360.956 228.555, 364 229.929, 364 232.028 C 364 235.568, 350.049 250.764, 338.639 259.653 C 333.951 263.305, 332.901 265, 335.326 265 C 337.690 265, 351.325 254.146, 358.161 246.823 L 364.822 239.686 369.274 248.593 C 375.604 261.257, 384.262 282.623, 388.334 295.630 C 393.772 312.997, 395.432 322.157, 395.468 335 C 395.499 346.051, 395.371 346.757, 392.193 353.088 C 386.822 363.784, 378.308 372.946, 368.500 378.582 C 364.082 381.121, 362.511 381.457, 355 381.477 C 343.054 381.509, 337.430 378.666, 325.500 366.566 C 315.598 356.523, 308.375 345.638, 296.661 323.108 C 284.015 298.786, 278.751 282.201, 278.614 266.250 C 278.559 259.818, 278.173 257, 277.347 257 C 274.835 257, 274.522 267.213, 276.652 279.674 C 277.181 282.769, 277.086 282.864, 272.847 283.465 C 270.456 283.804, 265.800 284.254, 262.500 284.464 C 259.200 284.675, 255.037 285.163, 253.250 285.549 L 250 286.250 250 276.285 C 250 265.403, 247.705 254.278, 243.924 246.831 C 239.236 237.597, 218.222 211.933, 211.438 207.156 C 205.660 203.087, 201 204.997, 201 211.434 C 201 212.845, 200.887 213.994, 200.750 213.987 C 200.613 213.980, 197.849 212.630, 194.609 210.987 C 191.369 209.344, 188.091 208, 187.324 208 C 186.557 208, 184.878 207.311, 183.592 206.469 C 181.486 205.088, 180.773 205.099, 176.378 206.570 C 159.745 212.138, 139.658 228.569, 121.453 251.500 C 117.086 257, 113.252 261.725, 112.932 262 C 110.901 263.745, 104.012 275.210, 104.510 276.017 C 105.481 277.586, 106.659 277.228, 113.781 273.195 C 123.770 267.538, 136.514 262.390, 145.219 260.494 C 149.465 259.569, 153.340 258.967, 153.830 259.156 C 154.321 259.345, 151.443 266.925, 147.436 276 C 133.400 307.785, 129.844 317.167, 125.466 333.955 C 121.569 348.898, 122.384 357.157, 128.650 366.231 C 135.224 375.751, 160.756 394, 167.501 394 C 171.680 394, 180.717 391.288, 184.750 388.823 C 186.538 387.731, 188.061 387.211, 188.135 387.668 C 188.209 388.126, 188.321 392.623, 188.385 397.662 C 188.448 402.701, 188.808 407.134, 189.183 407.512 C 191.182 409.524, 192 406.064, 192 395.591 L 192 384.300 198.126 378.971 C 220.257 359.722, 244.707 318.193, 248.593 293.250 C 249.213 289.273, 249.461 289, 252.456 289 L 255.657 289 254.242 297.250 C 253.463 301.788, 252.768 310.900, 252.697 317.500 C 252.547 331.283, 253.575 334.838, 263.969 356.500 C 270.118 369.315, 274.464 375.948, 278.404 378.529 C 280.625 379.985, 281.122 379.988, 283.866 378.569 C 287.906 376.480, 293.934 367.857, 299.735 355.868 C 302.356 350.452, 304.771 346.016, 305.103 346.011 C 305.435 346.005, 307.738 349.055, 310.221 352.789 C 321.173 369.259, 333.614 380.378, 344.693 383.599 C 350.100 385.171, 361.736 385.347, 365.643 383.916 C 367.980 383.060, 367.748 382.122, 369.543 399.651 L 370.174 405.803 367.156 406.466 C 363.321 407.308, 361.482 409.329, 363.238 410.773 C 364.548 411.851, 382.987 419.741, 386.500 420.727 C 387.600 421.036, 389.043 421.713, 389.706 422.231 C 390.370 422.748, 391.399 422.871, 391.995 422.503 C 393.642 421.485, 409 397.869, 409 396.353 C 409 395.623, 412.234 393.397, 416.186 391.406 C 432.288 383.298, 443.497 366.074, 446.923 344.179 C 448.087 336.735, 449.001 339.138, 431.544 303.750 C 425.100 290.688, 419.250 280, 418.542 280 C 417.509 280, 417.356 287.025, 417.763 315.750 C 418.313 354.539, 417.694 363.374, 413.544 376.067 C 409.303 389.035, 408.465 390.500, 404.312 392.210 C 391.246 397.591, 373.742 404.098, 373.394 403.703 C 373.295 403.591, 372.921 398.512, 372.564 392.416 L 371.914 381.332 376.055 378.462 C 382.407 374.060, 391.133 363.950, 394.832 356.707 C 403.812 339.125, 399.859 310.324, 382.725 268.500 C 376.982 254.482, 369.125 238.736, 367.355 237.697 C 366.352 237.108, 366.256 236.391, 366.993 235.012 C 369.382 230.549, 367.198 226.390, 361.908 225.332 C 359.522 224.854, 359.216 224.466, 360.029 222.946 C 361.345 220.488, 361.258 214.658, 359.885 213.285 C 358.629 212.029, 360.296 210.853, 376.500 201.559 C 389.306 194.213, 389.902 193.654, 387.612 191.124 C 385.161 188.415, 377.299 185.212, 366.066 182.345 C 357.133 180.065, 354.417 179.878, 325 179.520 C 307.675 179.309, 288.550 179.538, 282.500 180.028 M 216.500 185.453 C 194.988 188.419, 174.885 195.987, 153.829 209.046 C 136.757 219.634, 116.534 236.860, 118.642 239.016 C 119.508 239.902, 121.785 238.343, 128.036 232.587 C 153.987 208.690, 189.728 191.268, 218.500 188.488 C 231.331 187.248, 233 186.897, 233 185.439 C 233 183.692, 229.252 183.695, 216.500 185.453 M 204.950 210.094 C 203.166 213.428, 204.440 217.101, 210.439 225.910 C 216.484 234.789, 217.925 238.494, 216.043 240.323 C 214.356 241.962, 208.504 235.235, 204.105 226.602 C 200.540 219.604, 195.897 215.108, 189.457 212.417 C 184.202 210.222, 183.276 211.472, 184.759 218.755 C 185.729 223.516, 186.572 225.014, 189.683 227.500 C 203.501 238.541, 210.185 250, 202.807 250 C 199.919 250, 187.892 237.694, 185.516 232.308 C 184.310 229.575, 182.099 227.319, 178.070 224.710 C 170.817 220.014, 168 219.826, 168 224.040 C 168 228.732, 171.415 234.348, 176.178 237.489 C 187.161 244.732, 196.464 258.457, 191.643 260.307 C 188.773 261.408, 178.187 251.576, 172.230 242.277 C 169.544 238.085, 164.851 235.743, 162.956 237.649 C 161.742 238.871, 166.458 247.651, 171.470 253.500 C 173.826 256.250, 179.161 261.200, 183.324 264.500 C 190.388 270.099, 192.607 273, 189.826 273 C 189.180 273, 185.257 270.214, 181.108 266.808 C 175.317 262.055, 172.511 260.443, 169.032 259.868 C 159.625 258.314, 159.605 258.323, 156.217 265.750 C 136.587 308.780, 128.164 332.187, 127.281 346.159 C 126.799 353.781, 127.004 355.376, 128.995 359.489 C 131.856 365.400, 138.509 372.066, 149.384 379.916 C 160.682 388.073, 165.944 390.356, 172.082 389.766 C 185.783 388.450, 203.362 372.992, 220.904 346.836 C 234.714 326.244, 242.660 308.627, 245.510 292.281 C 248.396 275.731, 246.820 260.217, 241.061 248.488 C 237.495 241.225, 218.979 217.846, 212.881 212.907 C 206.586 207.808, 206.239 207.685, 204.950 210.094 M 176.223 210.557 C 175 211.413, 174 211.886, 174 211.609 C 174 210.681, 168.292 213.080, 166.384 214.809 C 164.256 216.737, 159.838 219.711, 155.739 221.975 C 151.176 224.496, 137.922 237.157, 130.482 246.104 C 123.330 254.704, 121.307 257.303, 115.919 264.806 L 112.827 269.113 120.163 265.415 C 134.693 258.091, 150.563 254.229, 161.902 255.257 L 167.792 255.791 164.867 251.459 C 157.135 240.001, 156.459 233, 163.086 233 C 165.532 233, 166.081 232.654, 165.605 231.413 C 164.031 227.312, 163.793 221.754, 165.088 219.336 C 166.320 217.034, 166.869 216.847, 170.810 217.387 C 173.208 217.716, 176.477 218.916, 178.074 220.053 L 180.978 222.121 180.880 215.560 C 180.775 208.555, 180.106 207.837, 176.223 210.557 M 400.421 210.345 C 400.138 211.084, 402.149 215.306, 404.891 219.728 C 416.940 239.154, 430.717 268.235, 433.565 280.250 C 434.210 282.969, 436.314 283.918, 437.488 282.019 C 438.605 280.213, 431.210 260.388, 424.566 247.374 C 414.270 227.204, 403.516 209, 401.898 209 C 401.369 209, 400.705 209.605, 400.421 210.345 M 393.461 225.063 C 393.100 225.648, 393.443 226.885, 394.224 227.813 C 396.630 230.671, 404.707 244.289, 406.346 248.250 C 407.963 252.157, 409.658 253.054, 410.632 250.518 C 411.678 247.790, 397.632 224, 394.975 224 C 394.504 224, 393.822 224.478, 393.461 225.063 M 326.189 231.527 C 323.885 234.016, 322.004 236.604, 322.009 237.277 C 322.016 238.376, 325.044 235.471, 330.405 229.221 C 334.012 225.016, 330.372 227.006, 326.189 231.527 M 194 238.400 C 197.550 243.344, 202 247.125, 202 245.199 C 202 243.660, 197.314 238.358, 193.671 235.775 L 190.500 233.527 194 238.400 M 340.911 242.175 C 334.899 248.474, 333.512 251.737, 339.103 246.427 C 342.957 242.767, 348.398 236, 347.487 236 C 347.112 236, 344.153 238.779, 340.911 242.175 M 180.679 247.500 C 182.404 249.700, 185.287 252.850, 187.087 254.500 L 190.360 257.500 188.239 254 C 187.073 252.075, 184.190 248.925, 181.832 247 L 177.544 243.500 180.679 247.500 M 332 282.796 C 332 284.105, 340.557 297.577, 345.310 303.750 C 354.728 315.984, 370.561 328.839, 373.094 326.306 C 373.812 325.588, 372.753 324.459, 369.662 322.648 C 360.027 317.001, 348.004 303.712, 338.541 288.250 C 336.437 284.813, 334.105 282, 333.358 282 C 332.611 282, 332 282.358, 332 282.796 M 267.019 287.193 C 262.905 287.707, 259.391 288.276, 259.211 288.456 C 258.580 289.087, 256.193 305.582, 255.486 314.193 C 255.004 320.064, 255.182 324.608, 256.033 328.193 C 258.749 339.628, 272.765 369.170, 277.947 374.381 C 282.467 378.926, 288.517 372.264, 298.185 352.100 L 303.171 341.699 300.526 337.100 C 294.390 326.429, 284.249 304.807, 281.133 295.750 C 278.651 288.539, 277.350 286.034, 276.139 286.129 C 275.237 286.200, 271.134 286.679, 267.019 287.193 M 185.588 296.410 C 182.219 303.295, 172.797 313.475, 160.023 324.031 C 150.183 332.162, 148.595 334, 151.410 334 C 155.304 334, 181.757 309.104, 186.656 300.830 C 190.697 294.004, 191.623 291, 189.685 291 C 188.887 291, 187.044 293.435, 185.588 296.410 M 421.500 326.250 C 421.500 362.414, 421.002 367.262, 415.843 381.363 C 412.593 390.250, 412.689 390.305, 421.388 384.531 C 429.833 378.925, 436.104 369.883, 440.555 356.894 C 441.948 352.827, 443.346 346.800, 443.661 343.500 C 444.211 337.738, 444.011 337.044, 438.616 326 C 431.121 310.657, 422.108 293, 421.771 293 C 421.622 293, 421.500 307.962, 421.500 326.250 M 99.900 319.250 C 92.754 333.727, 89.177 349.662, 90.398 361.580 C 91.161 369.024, 91.781 371, 93.357 371 C 94.158 371, 94.509 366.880, 94.529 357.250 C 94.555 344.709, 94.808 342.796, 97.409 335.500 C 98.977 331.100, 101.582 324.866, 103.197 321.646 C 105.996 316.067, 106.289 313, 104.024 313 C 103.452 313, 101.596 315.813, 99.900 319.250 M 102.317 342.750 C 99.952 351.770, 102.863 373.243, 106.647 374.695 C 109.094 375.634, 109.323 374.256, 107.462 369.791 C 106.052 366.407, 105.684 362.805, 105.719 352.750 C 105.755 342.630, 105.483 340, 104.401 340 C 103.652 340, 102.714 341.238, 102.317 342.750 M 109.417 362.356 C 108.574 364.553, 110.859 374.638, 112.511 376.009 C 114.347 377.533, 116.338 376.259, 115.416 374.149 C 115.020 373.242, 114.172 370.052, 113.531 367.061 C 112.365 361.615, 110.514 359.498, 109.417 362.356 M 96.372 392.474 C 96.044 393.327, 96.332 394.695, 97.011 395.513 C 97.689 396.331, 97.852 397.007, 97.372 397.015 C 96.893 397.024, 96.980 397.361, 97.566 397.765 C 98.152 398.169, 100.044 400.577, 101.771 403.115 C 109.271 414.141, 129.215 429.106, 155 443.053 C 166.786 449.428, 169.262 450.398, 174.500 450.689 L 180.500 451.024 177 449.312 C 136.737 429.620, 123.800 421.705, 111.072 408.977 C 105.940 403.844, 101.405 398, 102.554 398 C 102.934 398, 102.685 397.325, 102 396.500 C 100.913 395.190, 101.668 395, 107.951 395 C 114.265 395, 115.106 394.786, 114.812 393.250 C 114.529 391.769, 113.129 391.455, 105.722 391.211 C 98.551 390.974, 96.860 391.202, 96.372 392.474 M 120 394.306 C 120 398.334, 131.052 408.317, 143.375 415.421 C 159.690 424.825, 201.495 442.490, 209.643 443.422 C 211.372 443.619, 213.609 444.241, 214.614 444.804 C 216.169 445.674, 215.850 445.932, 212.471 446.536 C 210.287 446.926, 204.675 448.077, 200 449.094 L 191.500 450.944 204.500 450.553 C 218.642 450.127, 227.500 448.393, 227.500 446.050 C 227.500 445.083, 224.491 443.727, 218.478 441.984 C 213.516 440.545, 207.441 438.441, 204.978 437.307 C 202.515 436.173, 197.125 434.229, 193 432.988 C 181.355 429.483, 158.911 419.670, 146.742 412.764 C 139.064 408.406, 133.657 404.450, 128.958 399.751 C 122.332 393.125, 120 391.707, 120 394.306 M 386.263 403.264 C 377.333 406.617, 370.237 409.571, 370.495 409.828 C 370.753 410.086, 375.246 412.028, 380.481 414.143 L 389.998 417.988 392.499 415.814 C 395.674 413.053, 403.478 401.144, 402.652 400.319 C 402.311 399.977, 402.812 399.105, 403.766 398.381 C 407.085 395.860, 402.798 397.056, 386.263 403.264" stroke="none" fill="#1e2513" fill-rule="evenodd"/><path d="M 291.762 8.707 C 293.006 8.946, 294.806 8.937, 295.762 8.687 C 296.718 8.437, 295.700 8.241, 293.500 8.252 C 291.300 8.263, 290.518 8.468, 291.762 8.707 M 156 76.343 C 148.785 79.998, 145.409 82.263, 145.209 83.581 C 144.946 85.320, 145.101 85.290, 146.860 83.262 C 148.931 80.874, 162.836 73.995, 167 73.299 C 168.375 73.068, 173.775 72.879, 179 72.878 C 185.438 72.877, 187.694 72.606, 186 72.038 C 184.625 71.577, 179.675 71.160, 175 71.112 C 166.643 71.025, 166.323 71.113, 156 76.343 M 198.264 72.718 C 199.784 72.947, 202.034 72.941, 203.264 72.704 C 204.494 72.467, 203.250 72.279, 200.500 72.286 C 197.750 72.294, 196.744 72.488, 198.264 72.718 M 231.109 79.186 C 230.097 81.866, 230.528 83, 232.559 83 C 233.420 83, 234 82.018, 234 80.559 C 234 77.220, 232.178 76.354, 231.109 79.186 M 195.500 88.659 C 182.805 89.603, 175.949 89.743, 174.839 89.083 C 173.626 88.361, 173.027 88.486, 172.620 89.547 C 172.173 90.712, 173.194 91.002, 177.781 91.012 C 190.177 91.039, 231 88.589, 231 87.818 C 231 86.682, 217.921 86.992, 195.500 88.659 M 226.762 92.707 C 228.006 92.946, 229.806 92.937, 230.762 92.687 C 231.718 92.437, 230.700 92.241, 228.500 92.252 C 226.300 92.263, 225.518 92.468, 226.762 92.707 M 255.252 109.500 C 255.263 111.700, 255.468 112.482, 255.707 111.238 C 255.946 109.994, 255.937 108.194, 255.687 107.238 C 255.437 106.282, 255.241 107.300, 255.252 109.500 M 283.272 166 C 283.272 168.475, 283.467 169.488, 283.706 168.250 C 283.944 167.012, 283.944 164.988, 283.706 163.750 C 283.467 162.512, 283.272 163.525, 283.272 166 M 289 171.628 C 289 172.992, 289.688 173.136, 293.250 172.518 C 295.587 172.112, 297.950 171.792, 298.500 171.807 C 299.050 171.823, 304.007 172.076, 309.516 172.371 C 320.839 172.978, 325.698 171.671, 315.920 170.649 C 312.503 170.292, 305.048 170, 299.353 170 C 290.456 170, 289 170.229, 289 171.628 M 257.500 171.960 C 253.650 172.338, 251.850 172.758, 253.500 172.894 C 256.129 173.110, 256.252 173.247, 254.500 174 C 252.592 174.820, 252.603 174.863, 254.750 174.930 C 255.988 174.968, 257 174.643, 257 174.207 C 257 173.771, 259.137 173.425, 261.750 173.439 C 274.422 173.503, 286.071 172.923, 285.653 172.250 C 285.047 171.272, 266.470 171.081, 257.500 171.960 M 241 173.862 C 241 174.707, 247.989 174.344, 248.880 173.453 C 249.130 173.204, 247.458 173, 245.167 173 C 242.875 173, 241 173.388, 241 173.862 M 198.750 177.735 C 196.137 177.941, 194 178.458, 194 178.884 C 194 179.552, 204.627 178.636, 209 177.591 C 210.846 177.149, 205.161 177.230, 198.750 177.735 M 296.500 203.715 C 289.422 211.770, 280.207 223.797, 277.509 228.500 C 273.586 235.338, 271 250.201, 271 265.907 L 271 279.757 263.459 280.878 C 259.312 281.495, 254.587 282, 252.959 282 C 250.609 282, 250 282.437, 250 284.125 C 250 286, 250.383 286.167, 253.250 285.549 C 255.037 285.163, 259.200 284.675, 262.500 284.464 C 265.800 284.254, 270.456 283.804, 272.847 283.465 C 277.086 282.864, 277.181 282.769, 276.652 279.674 C 274.522 267.213, 274.835 257, 277.347 257 C 278.173 257, 278.559 259.818, 278.614 266.250 C 278.785 286.267, 289.251 313.129, 310.062 346.969 C 318.189 360.183, 331.814 374.401, 340.245 378.462 C 346.603 381.525, 356.254 382.789, 362 381.310 C 365.189 380.489, 365.944 379.515, 370.500 370.334 C 373.250 364.793, 377.162 358.428, 379.193 356.189 C 381.225 353.951, 383.172 350.597, 383.521 348.737 C 385.137 340.127, 378.806 317.685, 367.527 292.035 C 362.578 280.781, 352.756 261.897, 349.972 258.283 L 348.264 256.066 342.512 260.533 C 337.049 264.775, 334 266.060, 334 264.122 C 334 263.638, 336.408 261.385, 339.351 259.115 C 344.302 255.295, 349.928 249.827, 347.394 251.298 C 346.785 251.652, 345.435 251.126, 344.394 250.131 C 342.563 248.381, 342.376 248.402, 338.775 250.777 C 332.263 255.070, 330.137 252.008, 334.244 244.253 C 335.959 241.016, 336.241 239.605, 335.430 238.320 C 333.144 234.695, 331.524 234.608, 327.026 237.866 C 322.262 241.317, 319.531 241.827, 318.614 239.437 C 317.937 237.672, 320.252 232.576, 323.195 229.353 C 325.152 227.209, 325.151 227.200, 322.160 223.853 C 320.513 222.010, 318.997 220.726, 318.791 221.001 C 318.585 221.275, 317.204 223.393, 315.722 225.707 C 312.462 230.798, 309.710 232.560, 308.081 230.598 C 307.213 229.551, 307.771 227.666, 310.502 222.427 L 314.052 215.617 310.776 210.810 C 308.974 208.167, 307.219 206.003, 306.875 206.002 C 305.997 205.999, 295.246 220.080, 289.506 228.750 C 285.344 235.037, 282 237.894, 282 235.164 C 282 233.837, 295.760 214.055, 300.895 208 C 304.912 203.264, 305.418 202.187, 304.543 200.250 C 303.983 199.012, 303.070 198.006, 302.513 198.013 C 301.956 198.020, 299.250 200.586, 296.500 203.715 M 142.482 207.640 C 137.379 211.023, 135.581 212.808, 139.566 210.535 C 143.074 208.534, 147.754 205.055, 146.982 205.022 C 146.697 205.010, 144.672 206.188, 142.482 207.640 M 210.806 214.726 C 206.719 219.408, 206.774 220.399, 211.521 227.477 C 216.480 234.872, 217.820 238.580, 216.140 240.260 C 214.601 241.799, 210.592 237.938, 206.799 231.262 C 204.090 226.494, 203.629 226.124, 201.661 227.129 C 200.473 227.737, 198.767 229.155, 197.872 230.281 C 196.325 232.226, 196.460 232.594, 200.609 237.686 C 206.788 245.273, 207.625 250, 202.789 250 C 201.582 250, 198.340 247.644, 195.133 244.437 C 190.168 239.472, 189.322 238.988, 187.257 239.929 C 183.418 241.678, 183.415 243.810, 187.248 247.821 C 191.283 252.043, 193 255.031, 193 257.827 C 193 262.522, 187.216 260.279, 181.291 253.288 L 178.082 249.501 174.512 251.424 L 170.943 253.346 173.946 256.423 C 175.598 258.115, 180.088 261.975, 183.924 265 C 190.502 270.189, 192.577 273.029, 189.750 272.977 C 189.063 272.964, 184.952 270.039, 180.616 266.477 C 175.408 262.199, 171.844 259.995, 170.116 259.986 C 168.677 259.979, 166.600 259.818, 165.500 259.630 C 164.400 259.441, 164.078 259.483, 164.784 259.723 C 165.662 260.022, 165.148 261.207, 163.155 263.477 C 157.397 270.035, 148.931 291.784, 146.993 305 C 145.429 315.663, 145.830 329.354, 148.022 340.108 C 150.508 352.307, 152.781 358.623, 161.047 376.299 L 167.500 390.097 172.183 389.702 C 185.649 388.565, 203.381 372.964, 220.904 346.836 C 240.193 318.074, 248.158 294.851, 246.709 271.595 C 245.637 254.399, 241.083 245.151, 223.301 224.063 C 218.460 218.322, 214.017 213.474, 213.427 213.288 C 212.837 213.103, 211.657 213.750, 210.806 214.726 M 121 224.500 C 118.571 226.975, 116.809 229, 117.084 229 C 117.359 229, 119.571 226.975, 122 224.500 C 124.429 222.025, 126.191 220, 125.916 220 C 125.641 220, 123.429 222.025, 121 224.500 M 323.557 234.223 C 321.173 237.625, 321.705 238.626, 324.500 236 C 325.875 234.708, 327 233.280, 327 232.826 C 327 231.245, 325.103 232.015, 323.557 234.223 M 193 236.656 C 193 237.922, 198.102 243.984, 200.041 245.022 C 203.161 246.692, 202.432 244.484, 198.384 240.003 C 195.050 236.313, 193 235.038, 193 236.656 M 151.004 238.583 C 151.009 239.814, 154.814 246, 155.567 246 C 155.895 246, 155.148 244.313, 153.908 242.250 C 151.108 237.594, 150.999 237.457, 151.004 238.583 M 181 247.792 C 181 248.227, 183.107 250.590, 185.681 253.042 C 189.657 256.828, 190.090 257.048, 188.549 254.500 C 185.229 249.008, 181 245.251, 181 247.792 M 157 248.313 C 157 248.485, 158.463 249.948, 160.250 251.563 L 163.500 254.500 160.563 251.250 C 157.825 248.221, 157 247.540, 157 248.313 M 102.667 263.667 C 101.364 264.969, 102.027 267, 103.750 266.985 C 105.134 266.973, 105.212 266.787, 104.122 266.096 C 103.364 265.616, 103.053 264.723, 103.431 264.112 C 104.187 262.889, 103.718 262.616, 102.667 263.667 M 332 282.796 C 332 284.105, 340.557 297.577, 345.310 303.750 C 354.728 315.984, 370.561 328.839, 373.094 326.306 C 373.812 325.588, 372.753 324.459, 369.662 322.648 C 360.027 317.001, 348.004 303.712, 338.541 288.250 C 336.437 284.813, 334.105 282, 333.358 282 C 332.611 282, 332 282.358, 332 282.796 M 267.019 287.193 C 262.905 287.707, 259.391 288.276, 259.211 288.456 C 258.580 289.087, 256.193 305.582, 255.486 314.193 C 255.004 320.064, 255.182 324.608, 256.033 328.193 C 258.749 339.628, 272.765 369.170, 277.947 374.381 C 282.467 378.926, 288.517 372.264, 298.185 352.100 L 303.171 341.699 300.526 337.100 C 294.390 326.429, 284.249 304.807, 281.133 295.750 C 278.651 288.539, 277.350 286.034, 276.139 286.129 C 275.237 286.200, 271.134 286.679, 267.019 287.193 M 248.593 293.250 C 244.707 318.193, 220.257 359.722, 198.126 378.971 L 192 384.300 192 395.591 C 192 406.064, 191.182 409.524, 189.183 407.512 C 188.808 407.134, 188.448 402.701, 188.385 397.662 C 188.321 392.623, 188.209 388.175, 188.135 387.778 C 188.061 387.381, 185.931 388.157, 183.402 389.501 C 180.872 390.846, 177.267 392.234, 175.390 392.587 C 173.514 392.939, 171.755 393.588, 171.482 394.029 C 170.959 394.875, 178.681 407.934, 184.873 416.675 C 190.637 424.812, 201.045 435.108, 205.987 437.561 C 208.469 438.793, 214.100 440.789, 218.500 441.998 C 230.891 445.400, 231.103 447.117, 219.418 449.438 C 213.214 450.670, 218.557 450.822, 271.148 450.906 L 329.797 451 338.862 442.029 C 346.583 434.389, 348.590 431.683, 352.399 423.779 C 356.883 414.475, 357.944 411.450, 362.010 396.387 C 365.113 384.892, 364.977 384.595, 356.744 384.893 C 347.581 385.226, 340.815 383.055, 332.235 377.029 C 324.681 371.724, 317.702 364.039, 310.221 352.789 C 307.738 349.055, 305.435 346.005, 305.103 346.011 C 304.771 346.016, 302.356 350.452, 299.735 355.868 C 293.934 367.857, 287.906 376.480, 283.866 378.569 C 281.122 379.988, 280.625 379.985, 278.404 378.529 C 274.464 375.948, 270.118 369.315, 263.969 356.500 C 253.575 334.838, 252.547 331.283, 252.697 317.500 C 252.768 310.900, 253.463 301.788, 254.242 297.250 L 255.657 289 252.456 289 C 249.461 289, 249.213 289.273, 248.593 293.250 M 185.588 296.410 C 182.219 303.295, 172.797 313.475, 160.023 324.031 C 150.183 332.162, 148.595 334, 151.410 334 C 155.304 334, 181.757 309.104, 186.656 300.830 C 190.697 294.004, 191.623 291, 189.685 291 C 188.887 291, 187.044 293.435, 185.588 296.410 M 421.286 299.500 C 421.294 302.250, 421.488 303.256, 421.718 301.736 C 421.947 300.216, 421.941 297.966, 421.704 296.736 C 421.467 295.506, 421.279 296.750, 421.286 299.500 M 432 296.259 C 432 296.952, 432.900 298.081, 434 298.768 C 436.286 300.195, 436.552 299.311, 434.608 296.750 C 433.046 294.692, 432 294.495, 432 296.259 M 418.727 383.936 C 418.376 385.276, 418.642 385.691, 419.613 385.318 C 421.188 384.714, 421.430 383.384, 420.114 382.570 C 419.626 382.269, 419.002 382.884, 418.727 383.936 M 414.327 392.553 C 409.874 394.504, 409.131 396.110, 413.224 394.936 C 417.820 393.618, 418.437 393.755, 416.872 395.750 C 415.629 397.336, 415.664 397.371, 417.250 396.128 C 418.964 394.783, 419.730 390.921, 418.250 391.082 C 417.837 391.126, 416.072 391.789, 414.327 392.553 M 373.232 401 C 373.232 402.925, 373.438 403.712, 373.689 402.750 C 373.941 401.788, 373.941 400.212, 373.689 399.250 C 373.438 398.288, 373.232 399.075, 373.232 401 M 128.500 413.531 C 130.150 414.883, 131.925 415.992, 132.444 415.995 C 132.964 415.998, 131.864 414.875, 130 413.500 C 125.651 410.291, 124.575 410.314, 128.500 413.531 M 137 418.496 C 137 419.162, 153.122 427.212, 153.566 426.767 C 153.763 426.570, 150.117 424.520, 145.462 422.212 C 140.808 419.903, 137 418.231, 137 418.496 M 198 443.511 C 198 443.724, 200.411 444.658, 203.358 445.587 C 207.006 446.737, 209.949 447.045, 212.579 446.551 C 215.875 445.933, 216.174 445.677, 214.620 444.807 C 212.901 443.845, 198 442.684, 198 443.511" stroke="none" fill="#e2eda8" fill-rule="evenodd"/></svg>